<?xml version="1.0" encoding="UTF-8"?>
<svg id="Calque_1" data-name="Calque 1" xmlns="http://www.w3.org/2000/svg" xmlns:xlink="http://www.w3.org/1999/xlink" viewBox="0 0 500 500">
  <defs>
    <style>
      .cls-1 {
        fill: #01578a;
        filter: url(#drop-shadow-2);
      }

      .cls-2 {
        fill: #18223b;
      }

      .cls-3 {
        fill: #fff;
      }

      .cls-4 {
        fill: #0099d2;
        filter: url(#drop-shadow-1);
      }
    </style>
    <filter id="drop-shadow-1" x="147.31" y="78.31" width="125.76" height="184.32" filterUnits="userSpaceOnUse">
      <feOffset dx="7" dy="7"/>
      <feGaussianBlur result="blur" stdDeviation="5"/>
      <feFlood flood-color="#1d1d1b" flood-opacity=".75"/>
      <feComposite in2="blur" operator="in"/>
      <feComposite in="SourceGraphic"/>
    </filter>
    <filter id="drop-shadow-2" x="78.67" y="115.99" width="190.56" height="151.44" filterUnits="userSpaceOnUse">
      <feOffset dx="7" dy="7"/>
      <feGaussianBlur result="blur-2" stdDeviation="5"/>
      <feFlood flood-color="#1d1d1b" flood-opacity=".75"/>
      <feComposite in2="blur-2" operator="in"/>
      <feComposite in="SourceGraphic"/>
    </filter>
  </defs>
  <circle class="cls-2" cx="256.62" cy="256.76" r="156.7"/>
  <path class="cls-4" d="M250.85,86.54v154.04l-95.3-120.94c8.01-5.91,16.55-11.14,25.55-15.6,12.94-6.42,26.82-11.22,41.37-14.17l.06-.02c9.18-1.88,18.65-3.01,28.32-3.31Z"/>
  <path class="cls-1" d="M247.15,245.2H86.68c.28-4.36.73-8.68,1.35-12.94,5.49-38.17,23.65-72.25,50.07-97.85,3.75-3.65,7.69-7.12,11.79-10.41l97.26,121.2Z"/>
  <path class="cls-3" d="M177.57,208.33c7.34-13.71,17.44-24.35,30.29-31.91,12.85-7.56,27.16-11.34,42.92-11.34s29.04,3.35,40.49,10.04c11.44,6.7,19.97,15.12,25.59,25.27v-32.39h29.8v177.52h-29.8v-33.04c-5.83,10.37-14.53,18.95-26.08,25.75-11.56,6.8-25,10.2-40.33,10.2s-30.02-3.89-42.76-11.66c-12.75-7.77-22.79-18.68-30.13-32.72-7.34-14.04-11.01-30.01-11.01-47.94s3.67-34.07,11.01-47.78ZM308.77,221.45c-5.4-9.93-12.69-17.54-21.87-22.84-9.18-5.29-19.28-7.94-30.29-7.94s-21.06,2.59-30.13,7.77-16.31,12.74-21.7,22.68c-5.4,9.94-8.1,21.6-8.1,34.99s2.7,25.43,8.1,35.47c5.4,10.04,12.63,17.71,21.7,23,9.07,5.29,19.11,7.94,30.13,7.94s21.11-2.64,30.29-7.94c9.18-5.29,16.47-12.96,21.87-23,5.4-10.04,8.1-21.76,8.1-35.15s-2.7-25.05-8.1-34.99Z"/>
</svg>