<?xml version="1.0" encoding="UTF-8"?>
<svg id="Calque_1" data-name="Calque 1" xmlns="http://www.w3.org/2000/svg" xmlns:xlink="http://www.w3.org/1999/xlink" viewBox="0 0 500 500">
  <defs>
    <style>
      .cls-1 {
        fill: #01578a;
        filter: url(#drop-shadow-2);
      }

      .cls-2 {
        fill: #18223b;
      }

      .cls-3 {
        fill: #fff;
      }

      .cls-4 {
        fill: #0099d2;
        filter: url(#drop-shadow-1);
      }
    </style>
    <filter id="drop-shadow-1" x="61.95" y="193.99" width="58.08" height="75.36" filterUnits="userSpaceOnUse">
      <feOffset dx="7" dy="7"/>
      <feGaussianBlur result="blur" stdDeviation="5"/>
      <feFlood flood-color="#1d1d1b" flood-opacity=".75"/>
      <feComposite in2="blur" operator="in"/>
      <feComposite in="SourceGraphic"/>
    </filter>
    <filter id="drop-shadow-2" x="41.79" y="205.03" width="77.28" height="65.76" filterUnits="userSpaceOnUse">
      <feOffset dx="7" dy="7"/>
      <feGaussianBlur result="blur-2" stdDeviation="5"/>
      <feFlood flood-color="#1d1d1b" flood-opacity=".75"/>
      <feComposite in2="blur-2" operator="in"/>
      <feComposite in="SourceGraphic"/>
    </filter>
  </defs>
  <path class="cls-2" d="M141.11,271.8c-7.39,15.44-23.16,26.1-41.42,26.1-25.36,0-45.92-20.56-45.92-45.92s20.56-45.91,45.92-45.91c18.15,0,33.85,10.54,41.3,25.84-1.64,1.64-3.04,3.54-4.2,5.7-2.16,4.02-3.23,8.72-3.23,14.09s1.07,10.19,3.23,14.24c1.19,2.23,2.63,4.19,4.32,5.86Z"/>
  <path class="cls-4" d="M98,202.1v45.13l-27.92-35.43c2.35-1.73,4.85-3.26,7.49-4.57,3.79-1.88,7.86-3.29,12.12-4.15h.02c2.69-.56,5.46-.89,8.3-.98Z"/>
  <path class="cls-1" d="M96.92,248.59h-47.02c.08-1.28.21-2.54.4-3.79,1.61-11.18,6.93-21.17,14.67-28.67,1.1-1.07,2.25-2.09,3.45-3.05l28.5,35.51Z"/>
  <path class="cls-3" d="M72.62,237.6c2.15-4.02,5.11-7.13,8.87-9.35,3.76-2.21,7.96-3.32,12.58-3.32s8.51.98,11.86,2.94c3.35,1.96,5.85,4.43,7.5,7.4v-9.49h8.73v52.01h-8.73v-9.68c-1.71,3.04-4.26,5.55-7.64,7.55-3.39,1.99-7.32,2.99-11.82,2.99s-8.8-1.14-12.53-3.42c-3.73-2.28-6.68-5.47-8.83-9.59-2.15-4.11-3.23-8.79-3.23-14.05s1.08-9.98,3.23-14ZM111.07,241.45c-1.58-2.91-3.72-5.14-6.41-6.69-2.69-1.55-5.65-2.33-8.87-2.33s-6.17.76-8.83,2.28-4.78,3.73-6.36,6.64c-1.58,2.91-2.37,6.33-2.37,10.25s.79,7.45,2.37,10.39c1.58,2.94,3.7,5.19,6.36,6.74,2.66,1.55,5.6,2.33,8.83,2.33s6.18-.77,8.87-2.33c2.69-1.55,4.82-3.8,6.41-6.74,1.58-2.94,2.37-6.37,2.37-10.3s-.79-7.34-2.37-10.25Z"/>
  <path class="cls-3" d="M173.61,261.1h9.3c-1.39,5.32-4.17,9.57-8.35,12.77-4.17,3.19-9.39,4.79-15.66,4.79-4.93,0-9.32-1.11-13.15-3.32-1.71-1-3.26-2.18-4.64-3.54-1.69-1.67-3.13-3.63-4.32-5.86-2.16-4.05-3.23-8.79-3.23-14.24s1.07-10.07,3.23-14.09c1.16-2.16,2.56-4.06,4.2-5.7,1.41-1.41,3-2.63,4.76-3.65,3.83-2.21,8.22-3.32,13.15-3.32,6.39,0,11.66,1.55,15.8,4.65,4.15,3.1,6.89,7.4,8.21,12.91h-9.3c-.88-3.17-2.61-5.67-5.17-7.5-2.56-1.84-5.74-2.75-9.54-2.75-4.93,0-8.92,1.69-11.96,5.07-1.05,1.16-1.91,2.5-2.59,4-1.31,2.86-1.96,6.31-1.96,10.38s.67,7.73,2.03,10.64h0c.67,1.46,1.51,2.75,2.52,3.89,3.04,3.41,7.03,5.12,11.96,5.12,3.8,0,6.96-.88,9.49-2.66,2.53-1.77,4.27-4.3,5.22-7.59Z"/>
  <path class="cls-3" d="M263.69,225.79l-16.23,52.01h-8.92l-12.53-41.29-12.53,41.29h-8.92l-16.33-52.01h8.83l11.96,43.66,12.91-43.66h8.83l12.62,43.76,11.77-43.76h8.54Z"/>
  <path class="cls-3" d="M272.23,237.6c2.15-4.02,5.11-7.13,8.87-9.35,3.76-2.21,7.96-3.32,12.58-3.32s8.51.98,11.86,2.94c3.35,1.96,5.85,4.43,7.5,7.4v-9.49h8.73v52.01h-8.73v-9.68c-1.71,3.04-4.26,5.55-7.64,7.55-3.39,1.99-7.32,2.99-11.82,2.99s-8.8-1.14-12.53-3.42c-3.73-2.28-6.68-5.47-8.83-9.59-2.15-4.11-3.23-8.79-3.23-14.05s1.08-9.98,3.23-14ZM310.67,241.45c-1.58-2.91-3.72-5.14-6.41-6.69-2.69-1.55-5.65-2.33-8.87-2.33s-6.17.76-8.83,2.28-4.78,3.73-6.36,6.64c-1.58,2.91-2.37,6.33-2.37,10.25s.79,7.45,2.37,10.39c1.58,2.94,3.7,5.19,6.36,6.74,2.66,1.55,5.6,2.33,8.83,2.33s6.18-.77,8.87-2.33c2.69-1.55,4.82-3.8,6.41-6.74,1.58-2.94,2.37-6.37,2.37-10.3s-.79-7.34-2.37-10.25Z"/>
  <path class="cls-3" d="M352.81,227.88c3.42-1.96,7.31-2.94,11.67-2.94,4.68,0,8.89,1.11,12.62,3.32,3.73,2.22,6.68,5.33,8.83,9.35,2.15,4.02,3.23,8.69,3.23,14s-1.08,9.93-3.23,14.05c-2.15,4.11-5.11,7.31-8.87,9.59-3.77,2.28-7.96,3.42-12.58,3.42s-8.43-.98-11.82-2.94c-3.39-1.96-5.93-4.46-7.64-7.5v9.59h-8.64v-70.24h8.64v27.91c1.77-3.1,4.37-5.63,7.78-7.59ZM377.97,241.35c-1.58-2.91-3.72-5.13-6.41-6.64-2.69-1.52-5.65-2.28-8.87-2.28s-6.09.78-8.78,2.33c-2.69,1.55-4.84,3.8-6.45,6.74s-2.42,6.34-2.42,10.2.81,7.36,2.42,10.3,3.76,5.19,6.45,6.74c2.69,1.55,5.61,2.33,8.78,2.33s6.18-.77,8.87-2.33c2.69-1.55,4.82-3.8,6.41-6.74,1.58-2.94,2.37-6.41,2.37-10.39s-.79-7.34-2.37-10.25Z"/>
  <path class="cls-3" d="M400.56,237.6c2.15-4.02,5.11-7.13,8.87-9.35,3.76-2.21,7.96-3.32,12.58-3.32s8.51.98,11.86,2.94c3.35,1.96,5.85,4.43,7.5,7.4v-9.49h8.73v52.01h-8.73v-9.68c-1.71,3.04-4.26,5.55-7.64,7.55-3.39,1.99-7.32,2.99-11.82,2.99s-8.8-1.14-12.53-3.42c-3.73-2.28-6.68-5.47-8.83-9.59-2.15-4.11-3.23-8.79-3.23-14.05s1.08-9.98,3.23-14ZM439,241.45c-1.58-2.91-3.72-5.14-6.41-6.69-2.69-1.55-5.65-2.33-8.87-2.33s-6.17.76-8.83,2.28-4.78,3.73-6.36,6.64c-1.58,2.91-2.37,6.33-2.37,10.25s.79,7.45,2.37,10.39c1.58,2.94,3.7,5.19,6.36,6.74,2.66,1.55,5.6,2.33,8.83,2.33s6.18-.77,8.87-2.33c2.69-1.55,4.82-3.8,6.41-6.74,1.58-2.94,2.37-6.37,2.37-10.3s-.79-7.34-2.37-10.25Z"/>
</svg>